<svg width="12" height="12" fill="none" xmlns="http://www.w3.org/2000/svg">
<g clip-path="url(#clip0)">
<path d="M11.9045 10.823L8.802 7.7205C9.3855 6.918 9.7305 5.931 9.7305 4.865C9.7305 2.1825 7.548 0 4.865 0C2.1825 0 0 2.1825 0 4.865C0 7.548 2.1825 9.73 4.865 9.73C5.882 9.73 6.8265 9.4165 7.6085 8.881L10.7275 12L11.9045 10.823ZM1.427 4.865C1.427 2.969 2.9695 1.4265 4.8655 1.4265C6.7615 1.4265 8.304 2.969 8.304 4.865C8.304 6.761 6.7615 8.3035 4.8655 8.3035C2.969 8.3035 1.427 6.761 1.427 4.865Z" fill="#C7C5C5"/>
</g>
<defs>
<clipPath id="clip0">
<rect width="12" height="12" fill="white"/>
</clipPath>
</defs>
</svg>
